<?xml version="1.0" standalone="no"?>
<!DOCTYPE svg PUBLIC "-//W3C//DTD SVG 1.1//EN" "http://www.w3.org/Graphics/SVG/1.1/DTD/svg11.dtd">
<!--Generator: Xara Designer (www.xara.com), SVG filter version: 3.0.2.3-->
<svg stroke-width="0.501" stroke-linejoin="bevel" fill-rule="evenodd" xmlns:xlink="http://www.w3.org/1999/xlink" xmlns="http://www.w3.org/2000/svg" version="1.1" overflow="visible" width="3647.69pt" height="1889.35pt" viewBox="0 0 3647.69 1889.35">
 <defs>
  <marker id="DefaultArrow2" markerUnits="strokeWidth" viewBox="0 0 1 1" markerWidth="1" markerHeight="1" overflow="visible" orient="auto">
   <!-- REF_ARROW_STRAIGHT (-2) -->
   <g transform="scale(0.0092592592)">
    <!-- 1/108 -->
    <path d="M -9 54 L -9 -54 L 117 0 z"/>
   </g>
  </marker>
  <marker id="DefaultArrow3" markerUnits="strokeWidth" viewBox="0 0 1 1" markerWidth="1" markerHeight="1" overflow="visible" orient="auto">
   <!-- REF_ARROW_ANGLED -->
   <g transform="scale(0.0092592592)">
    <path d="M -27 54 L -9 0 L -27 -54 L 135 0 z"/>
   </g>
  </marker>
  <marker id="DefaultArrow4" markerUnits="strokeWidth" viewBox="0 0 1 1" markerWidth="1" markerHeight="1" overflow="visible" orient="auto">
   <!-- REF_ARROW_ROUNDED -->
   <g transform="scale(0.0092592592)">
    <path d="M -9,0 L -9,-45 C -9,-51.708 2.808,-56.580 9,-54 L 117,-9 C 120.916,-7.369 126.000,-4.242 126,0 C 126,4.242 120.916,7.369 117,9 L 9,54 C 2.808,56.580 -9,51.708 -9,45 z"/>
   </g>
  </marker>
  <marker id="DefaultArrow5" markerUnits="strokeWidth" viewBox="0 0 1 1" markerWidth="1" markerHeight="1" overflow="visible" orient="auto">
   <!-- REF_ARROW_SPOT -->
   <g transform="scale(0.0092592592)">
    <path d="M -54, 0 C -54,29.807 -29.807,54 0,54 C 29.807,54 54,29.807 54,0 C 54,-29.807 29.807,-54 0,-54 C -29.807,-54 -54,-29.807 -54,0 z"/>
   </g>
  </marker>
  <marker id="DefaultArrow6" markerUnits="strokeWidth" viewBox="0 0 1 1" markerWidth="1" markerHeight="1" overflow="visible" orient="auto">
   <!-- REF_ARROW_DIAMOND -->
   <g transform="scale(0.0092592592)">
    <path d="M -63,0 L 0,63 L 63,0 L 0,-63 z"/>
   </g>
  </marker>
  <marker id="DefaultArrow7" markerUnits="strokeWidth" viewBox="0 0 1 1" markerWidth="1" markerHeight="1" overflow="visible" orient="auto">
   <!-- REF_ARROW_FEATHER -->
   <g transform="scale(0.0092592592)">
    <path d="M 18,-54 L 108,-54 L 63,0 L 108,54 L 18, 54 L -36,0 z"/>
   </g>
  </marker>
  <marker id="DefaultArrow8" markerUnits="strokeWidth" viewBox="0 0 1 1" markerWidth="1" markerHeight="1" overflow="visible" orient="auto">
   <!-- REF_ARROW_FEATHER2 -->
   <g transform="scale(0.0092592592)">
    <path d="M -36,0 L 18,-54 L 54,-54 L 18,-18 L 27,-18 L 63,-54 L 99,-54 L 63,-18 L 72,-18 L 108,-54 L 144,-54 L 90,0 L 144,54 L 108,54 L 72,18 L 63,18 L 99,54 L 63,54 L 27,18 L 18,18 L 54,54 L 18,54 z"/>
   </g>
  </marker>
  <marker id="DefaultArrow9" markerUnits="strokeWidth" viewBox="0 0 1 1" markerWidth="1" markerHeight="1" overflow="visible" orient="auto">
   <!-- REF_ARROW_HOLLOWDIAMOND -->
   <g transform="scale(0.0092592592)">
    <path d="M 0,45 L -45,0 L 0, -45 L 45, 0 z M 0, 63 L-63, 0 L 0, -63 L 63, 0 z"/>
   </g>
  </marker>
  <filter id="StainedFilter">
   <feBlend mode="multiply" in2="BackgroundImage" in="SourceGraphic" result="blend"/>
   <feComposite in="blend" in2="SourceAlpha" operator="in" result="comp"/>
  </filter>
  <filter id="BleachFilter">
   <feBlend mode="screen" in2="BackgroundImage" in="SourceGraphic" result="blend"/>
   <feComposite in="blend" in2="SourceAlpha" operator="in" result="comp"/>
  </filter>
  <filter id="InvertTransparencyBitmapFilter">
   <feComponentTransfer>
    <feFuncR type="gamma" amplitude="1.055" exponent=".416666666" offset="-0.055"/>
    <feFuncG type="gamma" amplitude="1.055" exponent=".416666666" offset="-0.055"/>
    <feFuncB type="gamma" amplitude="1.055" exponent=".416666666" offset="-0.055"/>
   </feComponentTransfer>
   <feComponentTransfer>
    <feFuncR type="linear" slope="-1" intercept="1"/>
    <feFuncG type="linear" slope="-1" intercept="1"/>
    <feFuncB type="linear" slope="-1" intercept="1"/>
    <feFuncA type="linear" slope="1" intercept="0"/>
   </feComponentTransfer>
   <feComponentTransfer>
    <feFuncR type="gamma" amplitude="1" exponent="2.4" offset="0"/>
    <feFuncG type="gamma" amplitude="1" exponent="2.4" offset="0"/>
    <feFuncB type="gamma" amplitude="1" exponent="2.4" offset="0"/>
   </feComponentTransfer>
  </filter>
 </defs>
 <g id="Document" fill="none" stroke="black" font-family="Times New Roman" font-size="16" transform="scale(1 -1)">
  <g id="Spread" transform="translate(0 -1889.35)">
   <g id="Layer 1">
    <path d="M 1868.38,4.5 C 1848.13,6 1832.38,6.75 1823.39,6.75 L 1818.12,6.75 L 1818.11,6.756 C 1800.09,16.517 1716.09,160.537 1701.09,233.29 C 1696.59,255.794 1701.08,263.316 1702.6,264.835 C 1728.82,291.059 1718.34,440.275 1683.09,531.031 L 1683.09,531.04 L 1683.09,531.779 L 1682.35,532.515 L 1682.35,532.517 C 1525.59,711.029 1502.34,894.043 1509.84,1017.05 L 1509.84,1017.05 L 1510.58,1022.27 L 1506.12,1023.75 L 1506.12,1023.75 C 1361.37,1079.25 983.376,1208.25 587.386,1208.25 C 390.891,1208.25 213.897,1176.75 60.904,1115.25 L 60.676,1115.16 L 60.85,1115.34 C 338.356,1392.09 619.618,1533.1 897.136,1533.1 C 1170.9,1533.1 1439.42,1393.59 1695.92,1119.83 L 1695.93,1119.83 L 1732.66,1050.11 L 1737.88,1051.6 L 1737.89,1051.6 C 1739.39,1051.6 1937.39,1110.1 2213.39,1110.1 C 2385.89,1110.1 2551.64,1087.6 2706.9,1044.1 L 2709.88,1043.35 L 2712.11,1044.84 C 2715.11,1047.09 3005.37,1248.1 3235.64,1248.1 C 3283.64,1248.1 3325.65,1239.1 3361.66,1221.85 L 3361.66,1221.84 L 3361.66,1221.84 C 3374.42,1212.84 3567.91,1077.84 3647.41,1044.85 L 3647.43,1044.83 L 3647.43,1044.8 C 3648.94,1029.04 3643.68,1014.78 3632.42,1001.27 C 3603.16,967.498 3517.64,927.75 3276.89,927.75 L 3268.66,927.75 L 3267.17,926.264 L 3267.14,926.299 L 3267.16,926.256 C 3260.41,922.506 3110.43,830.265 3076.68,698.287 C 3066.93,658.523 3033.92,621.763 2995.67,579.766 C 2910.93,485.269 2805.19,367.535 2856.93,124.56 L 2858.42,117.867 L 2864.37,120.097 L 2864.37,120.098 C 2874.13,122.349 2898.13,124.6 2922.89,124.6 C 2943.13,124.6 2955.14,123.1 2958.9,121.596 L 2970.9,117.096 C 2985.15,112.597 3000.15,107.347 3014.4,102.096 L 3014.41,102.095 L 3014.41,102.094 C 3018.91,99.844 3023.41,97.594 3027.16,95.342 L 3027.45,95.169 L 3027.12,95.251 C 3024.13,95.999 3021.14,95.999 3018.15,95.251 L 3018.14,95.25 L 3014.9,95.25 C 3015.47,95.042 3015.92,94.582 3015.92,94.585 L 3015.95,94.552 L 3007.7,84.802 C 3009.19,83.312 3010.68,81.837 3012.9,81.097 L 3012.92,81.09 L 3012.93,81.072 C 3013.67,79.589 3015.16,78.846 3016.66,78.094 L 3016.67,78.091 L 3016.67,78.085 C 3018.92,75.837 3021.18,73.577 3021.93,70.562 L 3021.94,70.556 L 3021.94,70.55 C 3021.94,69.8 3022.69,68.3 3022.69,67.55 L 3022.59,67.55 C 3022.59,68.247 3021.89,68.25 3021.89,68.25 L 3021.86,68.25 L 3021.85,68.268 C 3018.86,72.005 3005.37,78.75 2996.39,78.75 C 2991.91,78.75 2988.92,76.511 2987.42,75.016 C 2985.18,72.029 2984.44,68.294 2985.18,63.809 C 2985.93,60.056 2987.43,56.326 2988.18,53.312 L 2988.2,53.25 L 2987.37,53.25 L 2987.36,53.26 C 2984.37,55.501 2981.38,56.25 2976.89,56.25 C 2973.89,56.25 2970.89,55.5 2968.64,55.5 C 2960.39,55.5 2951.39,54.75 2943.89,54 L 2941.64,54 L 2934.94,52.509 L 2934.94,51 L 2934.89,51 C 2928.89,51 2923.64,50.25 2917.65,50.25 L 2915.39,49.5 L 2877.88,49.5 L 2869.63,50.25 C 2850.13,50.25 2836.63,51.75 2836.63,51.75 L 2830.64,51.75 C 2795.35,51.75 2621.34,71.277 2618.34,464.29 L 2617.59,468.764 L 2613.86,470.254 L 2613.86,470.255 C 2612.37,471.001 2453.38,527.25 2301.14,527.25 C 2226.14,527.25 2164.65,513.75 2118.16,487.506 C 2097.91,476.256 2081.41,466.507 2069.42,457.51 L 2066.44,455.275 L 2066.44,453.045 L 2066.43,453.041 C 2045.43,336.774 1998.92,303.014 1965.17,278.259 C 1947.91,265.506 1933.68,255.767 1929.18,237.789 C 1926.94,225.8 1928.44,215.315 1935.18,206.329 C 1953.91,179.35 2004.14,173.35 2006.39,173.35 L 2007.14,173.35 C 2019.89,173.35 2031.89,172.599 2043.14,171.849 L 2055.9,171.85 L 2059.65,170.35 L 2061.14,170.35 L 2061.14,170.349 C 2089.64,165.849 2094.92,159.096 2095.68,157.572 L 2096.45,156.04 L 2095.68,155.278 C 2095.67,154.503 2094.91,152.996 2093.43,150.772 L 2093.42,150.765 L 2090.41,148.508 L 2086.66,146.256 C 2083.66,144.004 2079.9,142.5 2075.41,140.255 L 2075.41,140.254 L 2070.19,138.017 L 2070.19,136.429 L 2070.1,136.514 C 2069.95,136.662 2069.8,136.78 2069.62,136.774 C 2069.2,137.273 2068.62,137.335 2067.69,137.22 C 2067.59,137.249 2067.38,137.249 2067.15,137.25 L 2065.65,136.503 L 2065.65,136.502 C 2041.64,129 2010.14,125.999 1980.88,129 C 1967.39,129.748 1956.89,127.499 1953.15,126.75 L 1900.71,126.75 L 1904.43,117.819 C 1912.68,97.574 1923.17,83.335 1936.66,75.092 C 1941.16,72.094 1947.16,69.095 1954.65,66.096 L 1956.14,65.355 L 1957.62,66.098 L 1957.63,66.099 C 1986.13,69.849 2031.13,73.6 2057.39,73.6 C 2070.02,73.6 2073.1,72.865 2073.9,72.103 L 2073.9,72.097 L 2082.9,69.097 C 2097.9,63.846 2113.65,57.847 2129.4,52.597 L 2129.41,52.596 L 2129.41,52.594 C 2133.91,50.344 2138.41,48.094 2142.16,45.842 L 2142.45,45.669 L 2142.12,45.751 C 2139.13,46.499 2136.14,46.499 2133.15,45.751 L 2133.14,45.75 L 2130.44,45.75 C 2130.73,45.65 2130.94,45.45 2130.94,45.05 L 2130.94,45.029 L 2126.42,40.517 L 2122.7,35.305 C 2124.2,33.816 2126.43,32.328 2127.92,30.84 C 2129.41,30.091 2130.16,29.342 2131.66,28.594 L 2131.67,28.591 L 2131.67,28.585 C 2133.93,26.33 2135.43,24.075 2136.93,21.072 L 2136.94,21.061 L 2136.94,21.05 C 2136.94,20.3 2137.69,19.55 2137.69,18.05 L 2137.59,18.05 C 2137.59,18.747 2136.89,18.75 2136.89,18.75 L 2136.86,18.75 L 2136.85,18.768 C 2133.86,22.505 2120.37,29.25 2111.39,29.25 C 2106.91,29.25 2103.92,27.011 2102.42,25.516 C 2100.18,22.529 2099.44,18.794 2100.18,14.309 C 2100.93,10.558 2101.68,6.815 2103.18,3.822 L 2103.22,3.75 L 2102.37,3.75 L 2102.36,3.76 C 2099.37,6.001 2095.63,6.75 2091.89,6.75 C 2088.88,6.75 2085.89,6.749 2083.65,6.002 L 2083.64,6 L 2069.41,6 L 2068.66,5.253 L 2068.64,5.25 C 2058.89,3.75 2046.89,2.25 2033.39,0.75 L 2031.14,0.75 C 2030.39,0.75 2028.89,0 2028.14,0 L 1983.89,0 C 1943.38,0 1899.88,3 1868.38,4.5 Z M 2703.14,1170.75 L 2703.12,1170.75 C 2547.88,1214.25 2381.38,1236.75 2208.89,1236.75 C 1956.14,1236.75 1767.9,1188 1734.9,1178.25 L 1734.86,1178.24 L 1701.84,1239.78 C 1506.85,1599.77 1255.61,1782.75 956.386,1782.75 C 783.898,1782.75 599.407,1721.25 408.162,1600.51 C 266.416,1510.51 122.42,1387.51 0.173,1250.27 L 0,1250.07 L 0.088,1250.32 C 18.84,1302.07 42.091,1351.57 69.841,1398.82 C 95.346,1447.58 204.104,1571.34 357.857,1680.84 C 492.11,1776.09 700.62,1889.35 934.636,1889.35 C 1234.66,1889.35 1494.92,1704.83 1707.18,1341.08 L 1707.18,1341.07 L 1740.92,1263.11 L 1746.87,1264.6 C 1749,1265.52 1909.33,1309.6 2139.14,1309.6 C 2337.89,1309.6 2527.65,1277.35 2703.15,1214.35 L 2705.38,1213.6 L 2708.37,1215.1 L 2708.37,1215.1 C 2710.61,1215.84 2964.88,1351.6 3182.39,1351.6 C 3252.14,1351.6 3310.65,1338.1 3357.91,1310.34 L 3357.92,1310.34 L 3357.92,1310.33 C 3369.92,1297.58 3426.92,1237.59 3481.67,1188.84 L 3481.61,1188.76 C 3481.6,1188.76 3481.6,1188.76 3481.6,1188.76 C 3481.6,1188.76 3481.6,1188.77 3481.59,1188.77 C 3438.1,1222.51 3393.1,1261.51 3369.1,1282.51 L 3369.1,1282.51 L 3367.61,1284.01 C 3322.61,1305.75 3267.88,1316.25 3204.89,1316.25 C 2986.65,1316.25 2730.91,1185.01 2703.16,1170.76 L 2703.14,1170.75 Z" stroke-width="0.75" stroke="none" fill="#000000" fill-rule="nonzero" marker-start="none" marker-end="none" stroke-miterlimit="79.8403193612775"/>
   </g>
  </g>
 </g>
</svg>
