<?xml version="1.0" standalone="no"?>
<!DOCTYPE svg PUBLIC "-//W3C//DTD SVG 1.1//EN" "http://www.w3.org/Graphics/SVG/1.1/DTD/svg11.dtd">
<!--Generator: Xara Designer (www.xara.com), SVG filter version: 3.0.2.3-->
<svg stroke-width="0.501" stroke-linejoin="bevel" fill-rule="evenodd" xmlns:xlink="http://www.w3.org/1999/xlink" xmlns="http://www.w3.org/2000/svg" version="1.1" overflow="visible" width="768.563pt" height="768.187pt" viewBox="0 0 768.563 768.187">
 <defs>
  <marker id="DefaultArrow2" markerUnits="strokeWidth" viewBox="0 0 1 1" markerWidth="1" markerHeight="1" overflow="visible" orient="auto">
   <!-- REF_ARROW_STRAIGHT (-2) -->
   <g transform="scale(0.0092592592)">
    <!-- 1/108 -->
    <path d="M -9 54 L -9 -54 L 117 0 z"/>
   </g>
  </marker>
  <marker id="DefaultArrow3" markerUnits="strokeWidth" viewBox="0 0 1 1" markerWidth="1" markerHeight="1" overflow="visible" orient="auto">
   <!-- REF_ARROW_ANGLED -->
   <g transform="scale(0.0092592592)">
    <path d="M -27 54 L -9 0 L -27 -54 L 135 0 z"/>
   </g>
  </marker>
  <marker id="DefaultArrow4" markerUnits="strokeWidth" viewBox="0 0 1 1" markerWidth="1" markerHeight="1" overflow="visible" orient="auto">
   <!-- REF_ARROW_ROUNDED -->
   <g transform="scale(0.0092592592)">
    <path d="M -9,0 L -9,-45 C -9,-51.708 2.808,-56.580 9,-54 L 117,-9 C 120.916,-7.369 126.000,-4.242 126,0 C 126,4.242 120.916,7.369 117,9 L 9,54 C 2.808,56.580 -9,51.708 -9,45 z"/>
   </g>
  </marker>
  <marker id="DefaultArrow5" markerUnits="strokeWidth" viewBox="0 0 1 1" markerWidth="1" markerHeight="1" overflow="visible" orient="auto">
   <!-- REF_ARROW_SPOT -->
   <g transform="scale(0.0092592592)">
    <path d="M -54, 0 C -54,29.807 -29.807,54 0,54 C 29.807,54 54,29.807 54,0 C 54,-29.807 29.807,-54 0,-54 C -29.807,-54 -54,-29.807 -54,0 z"/>
   </g>
  </marker>
  <marker id="DefaultArrow6" markerUnits="strokeWidth" viewBox="0 0 1 1" markerWidth="1" markerHeight="1" overflow="visible" orient="auto">
   <!-- REF_ARROW_DIAMOND -->
   <g transform="scale(0.0092592592)">
    <path d="M -63,0 L 0,63 L 63,0 L 0,-63 z"/>
   </g>
  </marker>
  <marker id="DefaultArrow7" markerUnits="strokeWidth" viewBox="0 0 1 1" markerWidth="1" markerHeight="1" overflow="visible" orient="auto">
   <!-- REF_ARROW_FEATHER -->
   <g transform="scale(0.0092592592)">
    <path d="M 18,-54 L 108,-54 L 63,0 L 108,54 L 18, 54 L -36,0 z"/>
   </g>
  </marker>
  <marker id="DefaultArrow8" markerUnits="strokeWidth" viewBox="0 0 1 1" markerWidth="1" markerHeight="1" overflow="visible" orient="auto">
   <!-- REF_ARROW_FEATHER2 -->
   <g transform="scale(0.0092592592)">
    <path d="M -36,0 L 18,-54 L 54,-54 L 18,-18 L 27,-18 L 63,-54 L 99,-54 L 63,-18 L 72,-18 L 108,-54 L 144,-54 L 90,0 L 144,54 L 108,54 L 72,18 L 63,18 L 99,54 L 63,54 L 27,18 L 18,18 L 54,54 L 18,54 z"/>
   </g>
  </marker>
  <marker id="DefaultArrow9" markerUnits="strokeWidth" viewBox="0 0 1 1" markerWidth="1" markerHeight="1" overflow="visible" orient="auto">
   <!-- REF_ARROW_HOLLOWDIAMOND -->
   <g transform="scale(0.0092592592)">
    <path d="M 0,45 L -45,0 L 0, -45 L 45, 0 z M 0, 63 L-63, 0 L 0, -63 L 63, 0 z"/>
   </g>
  </marker>
  <filter id="StainedFilter">
   <feBlend mode="multiply" in2="BackgroundImage" in="SourceGraphic" result="blend"/>
   <feComposite in="blend" in2="SourceAlpha" operator="in" result="comp"/>
  </filter>
  <filter id="BleachFilter">
   <feBlend mode="screen" in2="BackgroundImage" in="SourceGraphic" result="blend"/>
   <feComposite in="blend" in2="SourceAlpha" operator="in" result="comp"/>
  </filter>
  <filter id="InvertTransparencyBitmapFilter">
   <feComponentTransfer>
    <feFuncR type="gamma" amplitude="1.055" exponent=".416666666" offset="-0.055"/>
    <feFuncG type="gamma" amplitude="1.055" exponent=".416666666" offset="-0.055"/>
    <feFuncB type="gamma" amplitude="1.055" exponent=".416666666" offset="-0.055"/>
   </feComponentTransfer>
   <feComponentTransfer>
    <feFuncR type="linear" slope="-1" intercept="1"/>
    <feFuncG type="linear" slope="-1" intercept="1"/>
    <feFuncB type="linear" slope="-1" intercept="1"/>
    <feFuncA type="linear" slope="1" intercept="0"/>
   </feComponentTransfer>
   <feComponentTransfer>
    <feFuncR type="gamma" amplitude="1" exponent="2.4" offset="0"/>
    <feFuncG type="gamma" amplitude="1" exponent="2.4" offset="0"/>
    <feFuncB type="gamma" amplitude="1" exponent="2.4" offset="0"/>
   </feComponentTransfer>
  </filter>
 </defs>
 <g id="Document" fill="none" stroke="black" font-family="Times New Roman" font-size="16" transform="scale(1 -1)">
  <g id="Spread" transform="translate(0 -768.187)">
   <g id="Layer 1">
    <g id="Group">
     <path d="M 0,768.187 L 0,0 L 768.563,0 L 768.563,768.187 L 0,768.187 Z" stroke="none" stroke-linejoin="miter" marker-start="none" marker-end="none"/>
     <g id="Group_1">
      <path d="M 548.956,288.597 L 548.956,288.737 C 548.956,304.317 560.945,316.547 577.137,316.547 C 588.056,316.547 595.085,311.962 599.825,305.385 L 588.674,296.763 C 585.614,300.58 582.097,303.022 576.986,303.022 C 569.497,303.022 564.23,296.688 564.23,288.892 L 564.23,288.737 C 564.23,280.721 569.497,274.466 576.986,274.466 C 582.559,274.466 585.845,277.059 589.044,280.952 L 600.195,273.012 C 595.159,266.064 588.368,260.942 576.525,260.942 C 561.25,260.942 548.956,272.63 548.956,288.597 Z M 218.19,269.956 L 226.448,279.808 C 231.72,275.609 237.598,273.387 243.778,273.387 C 247.751,273.387 249.893,274.762 249.893,277.059 L 249.893,277.215 C 249.893,279.421 248.132,280.646 240.879,282.326 C 229.497,284.925 220.719,288.135 220.719,299.13 L 220.719,299.281 C 220.719,309.213 228.584,316.391 241.416,316.391 C 250.499,316.391 257.602,313.937 263.406,309.288 L 255.997,298.819 C 251.111,302.26 245.77,304.086 241.029,304.086 C 237.448,304.086 235.687,302.572 235.687,300.655 L 235.687,300.505 C 235.687,298.062 237.524,296.993 244.921,295.313 C 257.227,292.64 264.856,288.673 264.856,278.665 L 264.856,278.509 C 264.856,267.594 256.228,261.093 243.252,261.093 C 233.776,261.093 224.767,264.072 218.19,269.956 Z M 452.731,270.112 L 462.277,279.115 C 464.87,275.991 467.313,274.155 470.598,274.155 C 474.34,274.155 476.714,276.673 476.714,281.644 L 476.714,315.468 L 491.45,315.468 L 491.45,281.569 C 491.45,274.836 489.765,270.112 486.184,266.515 C 482.662,263.01 477.626,261.093 471.511,261.093 C 462.202,261.093 456.473,264.985 452.731,270.112 Z M 651.746,269.956 L 660.004,279.808 C 665.271,275.609 671.155,273.387 677.334,273.387 C 681.301,273.387 683.444,274.762 683.444,277.059 L 683.444,277.215 C 683.444,279.421 681.688,280.646 674.43,282.326 C 663.048,284.925 654.275,288.135 654.275,299.13 L 654.275,299.281 C 654.275,309.213 662.135,316.391 674.967,316.391 C 684.051,316.391 691.153,313.937 696.957,309.288 L 689.559,298.819 C 684.667,302.26 679.32,304.086 674.585,304.086 C 670.999,304.086 669.238,302.572 669.238,300.655 L 669.238,300.505 C 669.238,298.062 671.074,296.993 678.477,295.313 C 690.777,292.64 698.412,288.673 698.412,278.665 L 698.412,278.509 C 698.412,267.594 689.779,261.093 676.803,261.093 C 667.326,261.093 658.318,264.072 651.746,269.956 Z M 66.914,262.016 L 66.914,315.468 L 109.676,315.468 L 109.676,302.491 L 81.721,302.491 L 81.721,293.402 L 107.003,293.402 L 107.003,281.107 L 81.721,281.107 L 81.721,262.016 L 66.914,262.016 Z M 116.393,262.016 L 116.393,315.468 L 141.674,315.468 C 149.84,315.468 155.494,313.336 159.091,309.664 C 162.226,306.615 163.82,302.491 163.82,297.214 L 163.82,297.063 C 163.82,288.892 159.461,283.47 152.82,280.646 L 165.576,262.016 L 148.466,262.016 L 137.701,278.202 L 131.216,278.202 L 131.216,262.016 L 116.393,262.016 Z M 171.305,262.016 L 171.305,315.468 L 214.298,315.468 L 214.298,302.867 L 185.972,302.867 L 185.972,294.776 L 211.63,294.776 L 211.63,283.083 L 185.972,283.083 L 185.972,274.617 L 214.685,274.617 L 214.685,262.016 L 171.305,262.016 Z M 272.039,262.016 L 272.039,315.468 L 286.852,315.468 L 286.852,295.469 L 305.873,295.469 L 305.873,315.468 L 320.686,315.468 L 320.686,262.016 L 305.873,262.016 L 305.873,282.326 L 286.852,282.326 L 286.852,262.016 L 272.039,262.016 Z M 351.31,262.016 L 351.31,315.468 L 376.585,315.468 C 384.757,315.468 390.411,313.336 394.002,309.664 C 397.137,306.615 398.732,302.491 398.732,297.214 L 398.732,297.063 C 398.732,288.892 394.388,283.47 387.736,280.646 L 400.492,262.016 L 383.382,262.016 L 372.618,278.202 L 366.127,278.202 L 366.127,262.016 L 351.31,262.016 Z M 406.221,262.016 L 406.221,315.468 L 449.214,315.468 L 449.214,302.867 L 420.889,302.867 L 420.889,294.776 L 446.541,294.776 L 446.541,283.083 L 420.889,283.083 L 420.889,274.617 L 449.601,274.617 L 449.601,262.016 L 406.221,262.016 Z M 500.234,262.016 L 500.234,315.468 L 543.228,315.468 L 543.228,302.867 L 514.891,302.867 L 514.891,294.776 L 540.554,294.776 L 540.554,283.083 L 514.891,283.083 L 514.891,274.617 L 543.614,274.617 L 543.614,262.016 L 500.234,262.016 Z M 619.593,262.016 L 619.593,302.491 L 603.562,302.491 L 603.562,315.468 L 650.448,315.468 L 650.448,302.491 L 634.416,302.491 L 634.416,262.016 L 619.593,262.016 Z M 148.928,296.15 L 148.928,296.301 C 148.928,300.505 145.872,302.636 140.912,302.636 L 131.216,302.636 L 131.216,289.816 L 140.992,289.816 C 146.029,289.816 148.928,292.258 148.928,296.15 Z M 383.844,296.15 L 383.844,296.301 C 383.844,300.505 380.789,302.636 375.829,302.636 L 366.127,302.636 L 366.127,289.816 L 375.903,289.816 C 380.94,289.816 383.844,292.258 383.844,296.15 Z M 325.375,411.752 C 323.442,411.878 321.921,411.971 321.078,411.971 C 320.845,411.971 320.652,411.957 320.52,411.945 C 318.833,412.84 310.751,426.755 309.323,433.735 C 308.878,435.939 309.256,436.616 309.449,436.795 C 311.979,439.312 310.93,453.658 307.583,462.378 L 307.542,462.491 L 307.477,462.57 C 292.374,479.678 290.13,497.364 290.893,509.186 L 290.92,509.644 L 290.501,509.81 C 276.608,515.156 240.201,527.588 202.113,527.588 C 183.219,527.588 166.19,524.553 151.421,518.582 C 178.132,545.281 205.188,558.802 231.886,558.802 C 258.238,558.802 284.093,545.42 308.751,519.034 L 312.318,512.313 L 312.802,512.46 C 312.995,512.52 332.055,518.104 358.614,518.104 C 375.183,518.104 391.137,515.972 406.059,511.742 L 406.344,511.656 L 406.59,511.835 C 406.876,512.028 434.843,531.367 456.984,531.367 C 461.566,531.367 465.638,530.536 469.065,528.89 C 470.346,527.994 488.948,515.029 496.579,511.848 C 496.706,510.327 496.214,508.926 495.124,507.658 C 492.309,504.424 484.093,500.545 460.943,500.545 L 460.125,500.545 L 459.965,500.452 C 459.369,500.087 444.937,491.174 441.683,478.457 C 440.707,474.651 437.552,471.137 433.906,467.087 C 425.717,457.988 415.542,446.658 420.49,423.274 L 420.631,422.624 L 421.268,422.796 C 422.191,423.068 424.488,423.247 426.859,423.247 C 428.791,423.247 429.988,423.121 430.326,423.016 L 431.508,422.577 C 432.87,422.105 434.285,421.601 435.645,421.069 C 436.124,420.897 436.529,420.69 436.908,420.459 C 436.635,420.498 436.336,420.511 436.064,420.486 C 435.985,420.472 435.904,420.459 435.852,420.459 C 435.792,420.445 435.752,420.432 435.712,420.432 C 435.738,420.432 435.792,420.418 435.818,420.392 L 435.009,419.436 L 435.021,419.422 C 435.167,419.303 435.333,419.177 435.493,419.058 C 435.632,418.977 435.752,418.878 435.878,418.785 C 436.138,418.579 436.283,418.367 436.376,418.094 C 436.41,417.981 436.449,417.888 436.489,417.808 C 436.462,417.835 436.437,417.862 436.389,417.888 C 436.078,418.187 434.843,418.878 433.972,418.878 C 433.48,418.878 433.208,418.678 433.076,418.5 C 432.843,418.24 432.777,417.876 432.87,417.45 C 432.936,417.072 433.049,416.733 433.168,416.407 C 433.142,416.407 433.115,416.42 433.076,416.42 C 432.816,416.607 432.464,416.706 432.053,416.706 C 431.78,416.706 431.508,416.665 431.263,416.62 C 430.446,416.654 429.635,416.593 428.885,416.461 L 428.705,416.461 L 428.002,416.38 L 427.988,416.228 C 427.483,416.189 426.939,416.162 426.354,416.135 L 426.122,416.095 C 426.056,416.083 426.003,416.062 425.929,416.049 C 425.146,416.062 424.342,416.083 423.539,416.083 L 422.549,416.083 L 421.746,416.108 C 419.853,416.148 418.558,416.254 418.544,416.254 L 418.491,416.268 L 418.438,416.254 C 418.425,416.254 418.259,416.241 417.987,416.241 C 414.633,416.241 397.843,418.16 397.531,455.988 L 397.531,456.421 L 397.114,456.573 C 396.961,456.626 381.699,462.04 367.009,462.04 C 359.829,462.04 353.899,460.764 349.396,458.234 C 347.437,457.145 345.916,456.188 344.727,455.331 L 344.455,455.145 L 344.455,454.873 C 342.39,443.716 337.939,440.455 334.706,438.085 C 333.006,436.849 331.67,435.866 331.266,434.14 C 330.994,433.024 331.179,432.007 331.81,431.111 C 333.589,428.567 338.444,427.996 338.651,427.97 L 338.716,427.97 C 339.973,427.97 341.114,427.923 342.183,427.844 L 342.595,427.844 C 343.26,427.844 343.439,427.803 343.439,427.803 L 343.791,427.684 L 343.911,427.651 C 346.687,427.245 347.19,426.569 347.258,426.442 L 347.33,426.336 L 347.283,426.209 C 347.258,426.13 347.19,425.998 346.998,425.818 L 346.725,425.546 L 346.725,425.558 L 346.388,425.353 C 346.102,425.168 345.736,424.988 345.345,424.808 L 344.787,424.583 L 344.827,424.457 C 344.727,424.47 344.621,424.47 344.528,424.484 L 344.349,424.457 C 342.038,423.726 339.029,423.42 336.227,423.679 C 334.898,423.805 333.889,423.56 333.55,423.454 L 328.502,423.454 L 328.854,422.597 C 329.645,420.678 330.681,419.303 331.916,418.5 C 332.407,418.201 332.979,417.929 333.683,417.655 L 333.835,417.602 L 333.996,417.629 C 336.692,418.021 341.068,418.353 343.571,418.353 C 344.84,418.353 345.113,418.253 345.138,418.253 L 346.008,417.941 C 347.476,417.423 348.997,416.879 350.471,416.307 C 350.943,416.135 351.355,415.943 351.734,415.71 C 351.448,415.75 351.176,415.763 350.877,415.724 C 350.811,415.71 350.744,415.71 350.671,415.697 C 350.618,415.683 350.577,415.683 350.538,415.683 C 350.564,415.683 350.618,415.657 350.658,415.631 L 350.24,415.152 L 349.827,414.681 C 350.006,414.527 350.186,414.408 350.372,414.268 C 350.485,414.189 350.591,414.109 350.697,414.023 C 350.943,413.824 351.109,413.605 351.189,413.332 C 351.229,413.233 351.268,413.139 351.315,413.047 C 351.268,413.074 351.242,413.1 351.215,413.126 C 350.904,413.439 349.668,414.135 348.798,414.135 C 348.307,414.135 348.034,413.917 347.888,413.738 C 347.669,413.479 347.603,413.112 347.683,412.695 C 347.749,412.31 347.854,411.971 347.994,411.646 C 347.955,411.659 347.929,411.659 347.902,411.672 C 347.63,411.851 347.283,411.945 346.879,411.945 C 346.62,411.945 346.347,411.904 346.088,411.865 C 345.644,411.878 345.206,411.878 344.754,411.838 L 344.674,411.817 C 343.737,411.632 342.582,411.48 341.234,411.4 L 341.054,411.36 C 340.948,411.347 340.855,411.321 340.755,411.294 C 340.443,411.307 340.144,411.307 339.833,411.307 L 339.287,411.321 C 338.583,411.294 337.847,411.28 337.11,411.28 L 336.525,411.28 C 332.64,411.307 328.437,411.566 325.375,411.752 Z M 358.182,530.278 C 333.822,530.278 315.691,525.589 312.503,524.72 L 309.388,530.604 C 290.568,565.251 266.44,582.824 237.657,582.824 C 220.994,582.824 203.242,576.934 184.865,565.331 C 171.197,556.684 157.339,544.796 145.596,531.639 C 147.382,536.594 149.621,541.369 152.303,545.878 C 154.741,550.6 165.214,562.502 180.01,573.001 C 192.908,582.173 213.012,593.104 235.519,593.104 C 264.408,593.104 289.425,575.359 309.88,540.333 L 313.134,532.835 L 313.666,532.987 C 313.812,533.028 329.28,537.298 351.434,537.298 C 370.562,537.298 388.799,534.209 405.68,528.146 L 405.953,528.047 L 406.199,528.187 C 406.444,528.319 430.871,541.369 451.843,541.369 C 458.537,541.369 464.21,540.034 468.726,537.424 C 469.881,536.182 475.374,530.404 480.667,525.722 C 476.45,528.963 472.139,532.662 469.815,534.742 L 469.662,534.834 C 465.326,536.932 460.045,537.996 453.982,537.996 C 433.035,537.996 408.357,525.317 405.72,523.929 C 390.771,528.146 374.779,530.278 358.182,530.278 Z" fill="#000000" fill-rule="nonzero" stroke="none" marker-start="none" marker-end="none"/>
     </g>
    </g>
   </g>
  </g>
 </g>
</svg>
